<svg fill="none" viewBox="0 0 24 24" xmlns="http://www.w3.org/2000/svg"><path clip-rule="evenodd" d="m4.65 8.3c.91127 0 1.65-.73873 1.65-1.65s-.73873-1.65-1.65-1.65-1.65.73873-1.65 1.65.73873 1.65 1.65 1.65zm.35.97709c1.29813-.17128 2.3-1.28218 2.3-2.62709 0-.1898-.01995-.37495-.05788-.55345.24209-.06301.49606-.09655.75788-.09655h10c1.6569 0 3 1.34315 3 3v4.8704c0 .0327-.0005.0653-.0016.0978.0011.0316.0016.0634.0016.0953 0 1.6974-1.5095 2.9974-3.1881 2.7456l-2.5868-.388c-1.4751-.2213-2.9751-.2213-4.4502 0l-1.93447.2901-2.49276 1.2897.05415-1.5247c-.8305-.4747-1.40182-1.3685-1.40182-2.4127 0-.0455.0011-.0908.00327-.1358-.00217-.0469-.00327-.094-.00327-.1414zm5.5987 8.12061-1.27647.2114-3.06231 1.4134c-.39757.1835-.85143-.1069-.85143-.5448v-1.6444c-.85997-.732-1.40849-1.8227-1.40849-3.047v-4.5666c-1.1493-.28981-2-1.33041-2-2.5697 0-1.46355 1.18645-2.65 2.65-2.65.91479 0 1.72132.46353 2.19753 1.16852.36494-.10962.75183-.16852 1.15247-.16852h10c2.2091 0 4 1.79086 4 4v4.8704c0 2.2434-1.8834 4.0268-4.1235 3.9046l-2.4726-.393c-1.5922-.253-3.2147-.2477-4.8052.0157zm-1.47743 3.0874-.24254-.9702c2.70587-.6764 5.53667-.6764 8.24257 0l-.2426.9702c-2.5466-.6367-5.2108-.6367-7.75743 0zm.87873-8.4851c.5523 0 1-.4477 1-1s-.4477-1-1-1c-.55228 0-1 .4477-1 1s.44772 1 1 1zm4-1c0 .5523-.4477 1-1 1s-1-.4477-1-1 .4477-1 1-1 1 .4477 1 1zm2 1c.5523 0 1-.4477 1-1s-.4477-1-1-1-1 .4477-1 1 .4477 1 1 1z" fill="#ffffff" fill-rule="evenodd"/></svg>
